<svg id="svg" xmlns="http://www.w3.org/2000/svg" xmlns:xlink="http://www.w3.org/1999/xlink" width="400" height="400" viewBox="0, 0, 400,400"><g id="svgg"><path id="path0" d="M192.442 52.508 C 173.224 57.845,173.358 85.791,192.627 90.928 C 205.270 94.300,217.503 84.847,217.503 71.705 C 217.503 58.528,205.067 49.002,192.442 52.508 M204.055 54.633 C 221.555 61.459,218.782 87.239,200.276 89.760 L 198.341 90.023 198.341 71.705 L 198.341 53.387 200.276 53.651 C 201.341 53.796,203.041 54.238,204.055 54.633 M101.014 88.269 C 78.985 94.386,83.490 127.180,106.359 127.180 C 124.122 127.180,132.918 106.005,120.369 93.456 C 115.413 88.501,107.660 86.423,101.014 88.269 M283.871 88.269 C 264.653 93.606,264.787 121.551,284.055 126.689 C 294.487 129.470,305.668 123.023,308.440 112.627 C 312.340 97.999,298.444 84.221,283.871 88.269 M112.613 90.385 C 130.093 97.232,127.369 122.998,108.900 125.513 L 107.016 125.769 105.249 123.438 C 97.875 113.707,97.817 101.025,105.102 91.305 L 106.715 89.153 108.735 89.405 C 109.847 89.544,111.592 89.985,112.613 90.385 M295.484 90.402 C 312.329 96.896,310.491 122.023,292.930 125.304 C 290.916 125.680,290.940 125.774,292.491 123.595 C 299.051 114.379,299.082 101.007,292.564 91.797 C 290.694 89.154,290.705 89.236,292.250 89.476 C 293.015 89.594,294.470 90.011,295.484 90.402 M61.567 180.803 C 42.349 186.140,42.483 214.086,61.751 219.223 C 74.395 222.595,86.627 213.142,86.627 200.000 C 86.627 186.823,74.192 177.297,61.567 180.803 M323.318 181.172 C 301.289 187.290,305.794 220.083,328.664 220.083 C 334.556 220.083,338.624 218.427,342.673 214.378 C 356.947 200.104,342.764 175.771,323.318 181.172 M70.397 182.116 C 75.522 183.088,80.992 187.336,83.220 192.074 C 91.905 210.545,68.564 227.154,54.161 212.752 C 41.547 200.138,52.861 178.791,70.397 182.116 M97.327 272.969 C 78.109 278.306,78.243 306.252,97.512 311.389 C 107.944 314.171,119.124 307.723,121.896 297.327 C 125.796 282.699,111.900 268.922,97.327 272.969 M282.581 273.735 C 281.567 274.006,280.298 274.397,279.761 274.602 C 279.225 274.808,278.725 274.916,278.652 274.842 C 278.399 274.590,273.947 277.790,272.157 279.510 C 267.899 283.603,265.627 291.669,267.098 297.471 C 267.438 298.811,267.781 300.230,267.860 300.625 C 268.632 304.472,275.730 311.032,280.601 312.399 C 300.542 317.995,315.211 293.760,300.679 279.229 C 296.131 274.680,288.125 272.250,282.581 273.735 M103.804 276.221 C 111.156 285.923,111.206 298.619,103.930 308.327 L 102.318 310.478 100.297 310.226 C 90.124 308.955,82.739 298.623,84.831 288.590 C 86.430 280.922,93.827 274.334,101.259 273.957 C 101.829 273.929,102.556 274.575,103.804 276.221 M283.849 277.449 C 281.970 279.931,280.858 281.868,280.375 283.502 C 280.225 284.009,279.885 284.922,279.620 285.530 C 276.894 291.787,278.630 303.721,283.201 310.140 L 284.005 311.270 282.556 311.035 C 280.405 310.686,276.622 308.631,274.411 306.610 C 263.127 296.297,268.917 277.840,284.240 275.278 C 284.747 275.193,285.279 275.101,285.423 275.073 C 285.567 275.046,284.858 276.115,283.849 277.449 M195.023 309.467 C 175.805 314.804,175.939 342.749,195.207 347.887 C 201.913 349.675,209.416 347.634,214.378 342.673 C 228.652 328.399,214.469 304.066,195.023 309.467 M199.816 328.698 L 199.816 346.982 197.880 346.718 C 189.215 345.538,182.120 337.410,182.120 328.664 C 182.120 319.576,190.171 310.884,198.986 310.455 L 199.816 310.415 199.816 328.698 " stroke="none" fill="#000000" fill-rule="evenodd"></path></g></svg>